<?xml version="1.0" standalone="no"?>
<!DOCTYPE svg PUBLIC "-//W3C//DTD SVG 20010904//EN"
 "http://www.w3.org/TR/2001/REC-SVG-20010904/DTD/svg10.dtd">
<svg version="1.0" xmlns="http://www.w3.org/2000/svg"
 width="512.000000pt" height="512.000000pt" viewBox="0 0 512.000000 512.000000"
 preserveAspectRatio="xMidYMid meet">

<g transform="translate(0.000000,512.000000) scale(0.100000,-0.100000)"
fill="#000000" stroke="none">
<path d="M1110 5101 c-19 -10 -48 -35 -64 -55 -26 -31 -31 -48 -34 -104 -4
-62 -6 -69 -33 -84 -52 -30 -48 -105 6 -130 22 -10 25 -17 25 -65 0 -89 57
-169 133 -189 l29 -7 -4 -86 -3 -87 -116 -149 c-176 -228 -222 -305 -267 -445
-48 -147 -52 -207 -52 -787 l0 -544 25 -24 c29 -30 64 -32 96 -6 l24 19 6 584
c4 510 7 590 22 643 28 99 57 166 105 248 l46 77 1506 0 1505 0 41 -67 c96
-159 125 -266 131 -491 6 -199 12 -216 78 -216 28 0 43 6 57 24 19 23 20 36
15 200 -5 203 -28 310 -95 454 -48 101 -71 136 -221 331 l-116 149 -3 87 -4
86 29 7 c76 20 133 100 133 189 0 48 3 55 25 65 54 25 58 100 6 130 -27 15
-29 22 -33 84 -3 56 -8 73 -34 104 -16 20 -45 45 -64 55 -33 18 -91 19 -1450
19 -1359 0 -1417 -1 -1450 -19z m2848 -183 l3 -48 -879 0 c-874 0 -879 0 -906
-21 -36 -28 -36 -80 0 -108 27 -21 32 -21 906 -21 l879 0 -3 -47 -3 -48 -1395
0 -1395 0 -3 48 -3 47 369 0 c346 0 371 1 393 19 32 26 32 86 0 112 -22 18
-47 19 -392 19 l-369 0 0 43 c0 24 3 47 7 50 3 4 632 6 1397 5 l1391 -3 3 -47z
m-156 -550 c5 -116 11 -134 90 -238 l50 -65 -691 -3 c-380 -1 -1002 -1 -1382
0 l-691 3 50 65 c79 104 85 122 90 238 l4 102 1238 0 1238 0 4 -102z"/>
<path d="M2345 3595 c-51 -18 -120 -91 -134 -141 -25 -91 -7 -162 59 -226 95
-92 217 -91 310 2 93 93 93 216 0 311 -64 67 -146 85 -235 54z m130 -160 c14
-13 25 -36 25 -50 0 -33 -42 -75 -75 -75 -33 0 -75 42 -75 75 0 33 42 75 75
75 14 0 37 -11 50 -25z"/>
<path d="M3715 3025 c-51 -18 -120 -91 -134 -141 -25 -91 -7 -162 59 -226 95
-92 217 -91 310 2 93 93 93 216 0 311 -64 67 -146 85 -235 54z m130 -160 c14
-13 25 -36 25 -50 0 -14 -11 -37 -25 -50 -13 -14 -36 -25 -50 -25 -14 0 -37
11 -50 25 -14 13 -25 36 -25 50 0 14 11 37 25 50 13 14 36 25 50 25 14 0 37
-11 50 -25z"/>
<path d="M4261 2904 c-21 -26 -21 -35 -21 -652 l0 -625 -57 54 c-43 40 -60 63
-65 91 -11 59 -37 106 -79 142 -88 75 -203 74 -290 -3 -39 -33 -52 -39 -111
-45 l-68 -8 0 49 c-1 184 -119 407 -274 517 -243 174 -532 181 -778 19 -97
-64 -171 -150 -225 -263 -25 -52 -49 -102 -53 -110 -4 -8 -22 -19 -41 -25 -43
-12 -122 -90 -134 -133 -9 -29 -19 -36 -90 -65 -44 -18 -96 -43 -114 -56 -32
-23 -34 -24 -60 -7 -70 46 -193 97 -264 111 -156 30 -287 11 -435 -61 -77 -38
-104 -46 -158 -48 l-64 -2 0 142 c0 128 -2 144 -21 168 -28 36 -80 36 -108 0
-21 -26 -21 -33 -21 -804 0 -744 1 -780 20 -855 53 -206 209 -362 415 -415 76
-19 112 -20 1395 -20 1279 0 1319 1 1394 20 208 53 363 208 416 415 19 76 20
111 20 1260 0 1181 0 1182 -21 1209 -15 19 -30 26 -54 26 -24 0 -39 -7 -54
-26z m-1197 -523 c198 -70 339 -255 353 -462 8 -105 2 -119 -54 -149 -26 -14
-82 -59 -124 -101 -60 -60 -87 -97 -122 -168 -26 -50 -49 -106 -52 -124 -6
-31 -10 -34 -78 -52 -40 -11 -77 -21 -84 -23 -7 -2 -16 20 -23 55 -37 183
-160 352 -321 445 -32 18 -59 39 -59 47 -1 40 -29 100 -67 139 l-42 44 20 54
c55 146 196 267 364 311 71 18 215 10 289 -16z m-739 -496 c14 -13 25 -36 25
-50 0 -14 -11 -37 -25 -50 -13 -14 -36 -25 -50 -25 -14 0 -37 11 -50 25 -14
13 -25 36 -25 50 0 14 11 37 25 50 13 14 36 25 50 25 14 0 37 -11 50 -25z
m1620 -90 c14 -13 25 -36 25 -50 0 -33 -42 -75 -75 -75 -33 0 -75 42 -75 75 0
33 42 75 75 75 14 0 37 -11 50 -25z m-2433 -46 c74 -15 201 -77 191 -92 -5 -7
-25 -38 -46 -70 -22 -33 -45 -74 -53 -93 -8 -19 -16 -34 -18 -34 -2 0 -21 7
-42 16 -27 11 -60 15 -110 12 -61 -3 -80 -8 -116 -33 -23 -17 -56 -50 -73 -74
-28 -40 -30 -49 -30 -130 0 -79 3 -92 28 -129 25 -38 90 -95 120 -105 7 -2 4
-18 -11 -49 -11 -25 -24 -58 -28 -73 -7 -28 -7 -28 -72 -45 -23 -6 -58 -25
-77 -42 l-35 -30 -57 43 c-147 114 -231 326 -197 497 6 28 8 30 45 25 133 -18
264 113 246 246 -3 22 -12 54 -21 71 l-15 31 43 20 c106 46 222 60 328 38z
m609 -72 c87 -83 197 -89 292 -15 l38 29 45 -26 c134 -79 244 -263 244 -408 0
-48 -3 -53 -67 -121 -38 -39 -77 -88 -88 -109 -11 -20 -22 -37 -25 -37 -3 0
-18 23 -35 51 -34 58 -166 188 -193 190 -59 4 -92 -22 -92 -73 0 -24 13 -42
65 -90 123 -114 174 -230 175 -389 0 -117 -22 -199 -78 -285 -149 -230 -444
-308 -686 -182 -73 39 -182 145 -216 210 -22 43 -23 50 -11 70 68 107 66 209
-4 287 l-34 37 23 55 c78 193 277 328 484 329 43 0 58 5 77 25 14 13 25 36 25
50 0 14 -11 37 -25 50 -20 21 -34 25 -80 25 -59 0 -197 -25 -228 -42 -27 -14
-28 -8 -13 49 36 136 140 264 266 327 40 20 78 36 85 36 6 0 32 -19 56 -43z
m1560 1 c7 -28 27 -59 58 -89 83 -84 195 -92 290 -21 l34 26 44 -50 c145 -164
172 -391 71 -593 -34 -67 -126 -169 -176 -195 -27 -14 -33 -14 -60 0 -17 8
-50 18 -73 22 -41 7 -42 8 -55 62 -8 30 -33 93 -56 140 -33 68 -58 102 -127
170 -112 111 -204 158 -384 195 -26 5 -28 9 -22 33 12 48 67 133 120 187 75
75 184 131 285 148 14 2 28 5 32 6 4 0 12 -18 19 -41z m-2676 -63 c14 -13 25
-36 25 -50 0 -33 -42 -75 -75 -75 -33 0 -75 42 -75 75 0 14 11 37 25 50 13 14
36 25 50 25 14 0 37 -11 50 -25z m510 -300 c19 -18 25 -35 25 -65 0 -30 -6
-47 -25 -65 -18 -19 -35 -25 -65 -25 -56 0 -90 34 -90 90 0 30 6 47 25 65 18
19 35 25 65 25 30 0 47 -6 65 -25z m1763 -130 c197 -47 362 -217 395 -409 9
-58 9 -63 -16 -99 -33 -48 -44 -117 -28 -176 11 -42 10 -46 -21 -98 -67 -111
-200 -207 -329 -238 -99 -23 -99 -23 -92 32 8 73 -11 127 -65 183 -94 96 -233
93 -321 -7 l-40 -44 -36 54 c-84 126 -110 305 -65 449 79 257 356 415 618 353z
m-2233 -521 c31 -18 45 -33 45 -47 0 -39 46 -123 84 -154 39 -31 95 -53 139
-53 21 0 31 -11 59 -62 18 -35 62 -93 97 -130 l63 -68 -138 0 c-84 0 -159 6
-189 14 -129 34 -225 114 -284 236 l-36 75 -4 165 -3 164 61 -57 c34 -31 82
-68 106 -83z m3184 -174 c-34 -159 -154 -284 -314 -326 -30 -8 -105 -14 -189
-14 l-139 0 59 62 c33 35 70 80 83 101 17 28 28 36 40 32 144 -59 319 78 299
233 -5 35 -3 39 49 77 30 21 69 55 86 75 l32 35 3 -110 c2 -61 -2 -135 -9
-165z m-2864 195 c14 -13 25 -36 25 -50 0 -33 -42 -75 -75 -75 -33 0 -75 42
-75 75 0 33 42 75 75 75 14 0 37 -11 50 -25z m2530 -80 c14 -13 25 -36 25 -50
0 -33 -42 -75 -75 -75 -33 0 -75 42 -75 75 0 33 42 75 75 75 14 0 37 -11 50
-25z m-1310 -282 c11 -21 49 -68 84 -105 l63 -68 -172 0 -172 0 63 68 c35 37
73 84 84 105 11 20 22 37 25 37 3 0 14 -17 25 -37z m430 -48 c14 -13 25 -36
25 -50 0 -33 -42 -75 -75 -75 -33 0 -75 42 -75 75 0 33 42 75 75 75 14 0 37
-11 50 -25z"/>
<path d="M2920 2201 c-114 -37 -174 -119 -174 -236 0 -76 15 -117 63 -168 46
-50 98 -71 176 -71 78 0 130 21 176 71 48 51 63 92 63 168 0 101 -42 173 -128
217 -43 22 -136 32 -176 19z m134 -171 c30 -30 29 -102 -2 -132 -29 -30 -100
-32 -131 -4 -45 40 -34 126 19 154 33 17 88 8 114 -18z"/>
<path d="M1968 985 c-137 -50 -199 -210 -133 -342 88 -175 342 -175 430 0 98
198 -92 417 -297 342z m141 -161 c26 -21 31 -33 31 -69 0 -36 -5 -48 -31 -69
-17 -15 -43 -26 -59 -26 -16 0 -42 11 -59 26 -26 21 -31 33 -31 69 0 36 5 48
31 69 17 15 43 26 59 26 16 0 42 -11 59 -26z"/>
<path d="M3168 985 c-137 -50 -199 -210 -133 -342 15 -28 41 -63 60 -78 167
-127 395 -17 395 190 0 171 -164 288 -322 230z m141 -161 c26 -21 31 -33 31
-69 0 -36 -5 -48 -31 -69 -17 -15 -43 -26 -59 -26 -16 0 -42 11 -59 26 -26 21
-31 33 -31 69 0 36 5 48 31 69 17 15 43 26 59 26 16 0 42 -11 59 -26z"/>
<path d="M1575 2475 c-51 -18 -120 -91 -134 -141 -25 -91 -7 -162 59 -226 95
-92 217 -91 310 2 93 93 93 216 0 311 -64 67 -146 85 -235 54z m130 -160 c14
-13 25 -36 25 -50 0 -14 -11 -37 -25 -50 -13 -14 -36 -25 -50 -25 -14 0 -37
11 -50 25 -14 13 -25 36 -25 50 0 14 11 37 25 50 13 14 36 25 50 25 14 0 37
-11 50 -25z"/>
</g>
</svg>
