<?xml version="1.0" standalone="no"?>
<!DOCTYPE svg PUBLIC "-//W3C//DTD SVG 20010904//EN"
 "http://www.w3.org/TR/2001/REC-SVG-20010904/DTD/svg10.dtd">
<svg version="1.0" xmlns="http://www.w3.org/2000/svg"
 width="512.000000pt" height="512.000000pt" viewBox="0 0 512.000000 512.000000"
 preserveAspectRatio="xMidYMid meet">

<g transform="translate(0.000000,512.000000) scale(0.100000,-0.100000)"
fill="#000000" stroke="none">
<path d="M2320 5027 c-49 -16 -133 -102 -148 -153 -28 -94 -8 -169 63 -239 51
-52 102 -75 165 -75 124 0 240 116 240 240 0 63 -23 114 -75 165 -70 71 -152
91 -245 62z m135 -172 c50 -49 15 -135 -55 -135 -41 0 -80 39 -80 80 0 41 39
80 80 80 19 0 40 -9 55 -25z"/>
<path d="M2904 4935 l-26 -26 4 -182 c4 -180 4 -183 37 -262 31 -73 35 -92 40
-210 3 -71 10 -136 15 -144 15 -23 321 -167 381 -179 109 -22 215 -10 319 37
44 19 280 190 309 223 24 28 22 74 -6 102 -16 16 -45 26 -100 36 -42 7 -77 16
-76 19 0 3 23 23 50 44 127 97 228 305 229 470 0 38 -5 53 -26 74 -26 26 -27
26 -137 20 -62 -4 -139 -14 -172 -23 -140 -38 -267 -116 -373 -228 l-61 -66
-37 70 c-46 87 -139 177 -228 219 -78 38 -109 39 -142 6z m1002 -167 c-11 -58
-62 -152 -109 -204 -61 -68 -122 -105 -232 -143 -96 -34 -125 -57 -125 -101 0
-54 26 -70 155 -96 65 -13 120 -26 123 -28 11 -11 -101 -78 -162 -97 -104 -33
-162 -23 -312 50 l-121 59 -5 103 c-4 88 -10 116 -38 184 -25 61 -34 100 -38
163 -3 56 -1 82 6 82 15 0 87 -96 102 -135 7 -16 22 -79 35 -140 26 -119 43
-145 94 -145 40 0 66 23 86 77 71 192 248 344 450 388 95 21 99 20 91 -17z"/>
<path d="M1689 4624 c-84 -26 -159 -87 -214 -177 -9 -15 -21 -15 -145 3 -74
11 -149 22 -166 25 l-31 5 -12 -76 c-7 -41 -11 -78 -8 -80 2 -2 75 -14 163
-27 l159 -22 15 -60 c20 -72 40 -113 81 -159 45 -52 88 -75 225 -121 151 -51
260 -115 366 -214 101 -95 142 -153 268 -381 56 -102 111 -193 122 -202 29
-26 74 -23 105 8 l25 25 -5 282 c-5 298 -13 356 -67 517 -72 214 -222 433
-366 536 -153 109 -378 161 -515 118z m275 -174 c155 -53 278 -171 385 -370
75 -141 131 -356 131 -505 l0 -60 -21 35 c-12 19 -41 65 -66 101 -134 203
-346 359 -599 440 -106 34 -148 64 -175 124 -45 98 -6 198 96 247 50 24 161
19 249 -12z"/>
<path d="M560 4547 c-19 -6 -58 -34 -85 -62 -71 -70 -91 -145 -63 -239 16 -55
99 -138 154 -154 94 -28 169 -8 239 63 102 101 102 229 0 330 -70 71 -152 91
-245 62z m135 -172 c50 -49 15 -135 -55 -135 -41 0 -80 39 -80 80 0 41 39 80
80 80 19 0 40 -9 55 -25z"/>
<path d="M4272 4463 c-12 -10 -109 -209 -217 -443 l-195 -426 -118 1 c-250 0
-365 -74 -673 -435 -139 -162 -344 -453 -434 -615 l-37 -65 -1114 0 -1115 0
-24 -25 c-22 -21 -25 -33 -25 -102 0 -43 7 -136 15 -207 89 -760 543 -1409
1223 -1748 l122 -61 0 -104 c0 -97 2 -106 25 -128 l24 -25 831 0 831 0 24 25
c23 22 25 31 25 128 l0 104 125 62 c224 112 410 248 592 432 179 182 300 352
412 580 142 286 231 654 231 951 0 60 -3 72 -25 93 l-24 25 -362 0 -361 0 71
66 c89 82 160 188 192 285 20 63 24 91 22 184 -1 61 -4 123 -5 138 l-3 29 350
134 c221 85 356 142 368 155 35 42 23 67 -113 250 -72 96 -138 180 -147 187
-38 28 -68 14 -213 -99 -78 -61 -138 -105 -134 -98 4 8 93 123 196 258 197
256 208 276 171 319 -20 23 -434 192 -469 192 -12 0 -31 -8 -42 -17z m316
-258 c4 -4 -517 -679 -533 -690 -10 -7 -19 -5 -30 6 -15 14 0 50 160 396 l177
381 111 -45 c62 -25 113 -46 115 -48z m183 -566 c33 -44 59 -82 57 -83 -9 -7
-586 -226 -596 -226 -7 0 -12 4 -12 10 0 9 469 380 482 380 4 0 35 -36 69 -81z
m-936 -214 c214 -56 354 -267 318 -479 -20 -120 -51 -168 -190 -304 -184 -180
-155 -174 -276 -54 -56 56 -107 102 -112 102 -13 0 -105 -92 -105 -104 0 -6
21 -32 47 -58 l47 -48 -392 0 -392 0 51 83 c100 159 226 333 353 485 l61 72
105 -105 c58 -58 108 -105 111 -105 8 0 80 68 99 93 12 16 3 29 -96 128 l-108
109 52 53 c124 126 273 172 427 132z m800 -1172 c-12 -126 -26 -218 -52 -328
-14 -60 -27 -112 -29 -114 -3 -3 -85 75 -182 172 -160 159 -182 177 -212 177
-30 0 -52 -18 -217 -182 l-183 -182 -183 182 c-165 164 -187 182 -217 182 -30
0 -52 -18 -217 -182 l-183 -182 -183 182 c-165 164 -187 182 -217 182 -30 0
-52 -18 -217 -182 l-183 -182 -183 182 c-165 164 -187 182 -217 182 -30 0 -52
-18 -217 -182 l-183 -182 -183 182 c-165 164 -187 182 -217 182 -30 0 -52 -18
-212 -177 -97 -97 -179 -175 -182 -172 -17 18 -68 295 -81 437 l-6 72 2081 0
2082 0 -7 -67z m-3490 -473 c163 -162 185 -180 215 -180 30 0 52 18 217 182
l183 182 183 -182 c165 -164 187 -182 217 -182 30 0 52 18 217 182 l183 182
183 -182 c165 -164 187 -182 217 -182 30 0 52 18 217 182 l183 182 183 -182
c165 -164 187 -182 217 -182 30 0 52 18 217 182 l183 183 167 -167 167 -167
-39 -86 c-204 -458 -579 -833 -1041 -1040 -55 -25 -107 -54 -116 -66 -14 -17
-18 -40 -18 -110 l0 -89 -720 0 -720 0 0 89 c0 70 -4 93 -17 110 -10 12 -62
41 -117 66 -462 207 -837 582 -1041 1040 l-39 86 165 165 c90 90 166 164 169
164 2 0 86 -81 185 -180z"/>
<path d="M3757 3202 c-26 -26 -47 -52 -47 -58 0 -13 222 -234 236 -234 13 0
104 92 104 106 0 13 -222 234 -236 234 -5 0 -31 -22 -57 -48z"/>
<path d="M244 3866 c-64 -66 -129 -193 -150 -296 -41 -196 23 -421 163 -566
125 -130 286 -198 468 -197 148 0 277 46 397 140 61 48 83 89 68 126 -4 12
-194 208 -422 435 -355 354 -418 412 -443 412 -22 0 -41 -13 -81 -54z m183
-238 c51 -51 93 -96 93 -100 0 -5 -61 -8 -136 -8 l-136 0 7 38 c7 41 62 162
73 162 4 0 48 -42 99 -92z m3 -363 c-52 -52 -98 -95 -102 -95 -10 0 -64 118
-73 158 l-7 32 139 0 138 0 -95 -95z m210 -155 l0 -140 -27 6 c-46 10 -163 66
-163 78 0 9 179 196 187 196 2 0 3 -63 3 -140z m265 40 l99 -99 -75 -35 c-41
-19 -86 -37 -101 -40 l-28 -6 0 140 c0 77 1 140 3 140 1 0 47 -45 102 -100z"/>
<path d="M1760 3187 c-49 -16 -133 -102 -148 -153 -28 -94 -8 -169 63 -239
102 -103 243 -101 338 5 93 103 90 228 -8 325 -70 71 -152 91 -245 62z m135
-172 c50 -49 15 -135 -55 -135 -41 0 -80 39 -80 80 0 41 39 80 80 80 19 0 40
-9 55 -25z"/>
</g>
</svg>
