<svg xmlns="http://www.w3.org/2000/svg" viewBox="0 0 1080 1080"><defs><style>.cls-1{fill:#f29f05;}.cls-2{fill:#070000;}.cls-3{fill:#8a8c3e;}.cls-4{fill:#f2eeeb;}</style></defs><g id="Camada_1" data-name="Camada 1"><path class="cls-1" d="M458,684.3H375.39V632q0-22.82-2.65-28.47t-11.68-5.65q-10.21,0-13,6.87t-2.75,29.74V774.24q0,21.93,2.75,28.62t12.37,6.69q9.22,0,12.07-6.71t2.85-31.48V733.55H458v11.72q0,46.71-7,66.25t-30.82,34.24q-23.85,14.7-58.79,14.71-36.31,0-59.87-12.45t-31.22-34.48q-7.65-22-7.65-66.25V659.4q0-32.52,2.35-48.78t14-31.31q11.67-15.06,32.39-23.7t47.6-8.64q36.53,0,60.27,13.36t31.21,33.32q7.47,20,7.46,62.07Z"/><path class="cls-1" d="M630.54,553.29,677.8,854.15H593.34l-4.44-54.08H559.34l-5,54.08H468.93l42.16-300.86Zm-43.8,193.45q-6.29-51.12-12.59-126.37-12.63,86.42-15.86,126.37Z"/><path class="cls-1" d="M691.83,553.29h83.24q33.75,0,51.92,5t27.29,14.49a49,49,0,0,1,12.37,23q3.23,13.47,3.23,41.72v26.2q0,28.82-6.28,42t-23.06,20.25Q823.76,733,796.66,733H774.48V854.15H691.83Zm82.65,51.47v76.56c2.36.13,4.38.19,6.08.19q11.38,0,15.81-5.3t4.42-22V629.48q0-15.42-5.11-20.07T774.48,604.76Z"/><path class="cls-2" d="M249.59,238.11c13.64,1.29,18.48,3.44,20.68,42.14,2.64,39.13,2.64,114.8,2.64,159.52-.44,21.93-.44,36.12-.88,46.44,11,0,21.57.43,29.49.43,18,.43,22.44.86,24.64,8.17,2.21,6.88,1.32,19.78,0,27.52-1.32,7.31-3.52,8.6-20.68,9.46s-48.41,1.29-66,.43a4,4,0,0,1-2.2-.43c-12.32.86-26.41.43-36.53-1.72-15.4-3-20.69-9.46-22.45-52.89-1.32-43.43.44-123.83,1.32-164.25,1.32-40,1.32-40,1.76-43.43A76.92,76.92,0,0,1,184,252.3c1.32-6,4-11.61,16.28-14.19A143.11,143.11,0,0,1,221,236.82,284.45,284.45,0,0,1,249.59,238.11Z"/><path class="cls-2" d="M503.51,238.54c18.93,5.16,27.73,16.34,38.73,64.5,11.44,48.16,26,133.29,29.93,177.58,4.4,44.72-1.76,48.59-18,51.17s-42.68,3.87-56.77,0c-13.64-3.44-15-11.61-16.28-19.78s-3.08-15.48-5.28-19.35c-1.76-3.44-4.4-2.58-15.85-2.58s-32.12,0-43.12.86c-10.57.86-11.45,3-12.33,10.32-.44,7.31-.88,19.35-4.84,26.23-4,6.45-11.88,8.17-23.32,8.6s-26.85.43-33-2.58c-6.16-2.58-3.52-7.74,1.32-30.53,4.4-22.79,11-62.78,18.93-110.51,7.92-47.29,17.6-102.33,28.16-129.85,10.56-28,22.44-28,43.13-28.38,4.84,0,10.56-.43,16.72-.43C469.19,233.81,489.43,234.67,503.51,238.54ZM434,302.18c-7,26.23-17.16,77.83-21.57,106.2-4.4,27.95-3.07,32.68,6.17,34.83,9.68,1.72,26.84.86,37-1.29,9.69-2.15,11.45-5.16,9.24-32.68-2.64-27.95-9.24-80.4-15-106.63-2.64-12.9-4.84-19.78-7-19.78C440.14,282.83,437.5,289.28,434,302.18Z"/><path class="cls-2" d="M751.72,240.26c28.17,8.17,47.09,26.23,55.89,51.6,9.24,25.37,7.92,58.48.44,83.41s-21.56,42.14-45.33,51.6a1.64,1.64,0,0,1-1.32.43c17.17,29.24,32.13,55.47,40.49,72.24,11,21.93,9.68,26.23-2.64,28.81s-35.65,3-48.85,1.72-16.28-4.3-26.41-19.35c-7.92-12-20.68-32.25-31.24-51.6-.44,29.67-.88,40.85-1.32,49.45-.88,10.32-1.76,17.2-15.41,21.07-13.64,3.44-39.6,3.87-55,.43-15.4-3-20.68-9.46-22.44-52.89-1.32-43.43.44-123.83,2.2-167.26,1.76-43.86,1.76-38.7,3.08-51.17,1.76-12.47,4-18.06,16.72-20.21,5.28-1.29,12.32-1.72,19.81-1.72,5.72-.86,12.76-1.29,21.56-1.72,9.24-.86,20.24-1.29,31.69-1.29C713,233.81,734.12,235.1,751.72,240.26Zm-61.17,40c1.32,24.51,2.2,63.64,2.2,100.18,9.24.86,18,.86,24.2-1.72,11.88-5.59,14.08-20.63,15.85-37,1.32-16.34,2.64-33.11-1.32-44.72-4-11.18-13.21-16.77-27.73-17.2h-2.64C698,279.82,694.07,280.25,690.55,280.25Z"/><path class="cls-2" d="M842.82,273.8c.44-3.44,1.32-10.75,2.64-17.2,1.76-6,4-11.61,16.28-14.19,12.77-2.15,35.65-1.29,49.29,0s18.49,3.44,21.13,42.14c2.2,39.13,2.2,114.8,2.2,159.52s-.88,58.48-1.32,68.8c-.88,10.32-1.76,17.2-15.41,20.64-13.64,3.87-39.6,3.87-55,.86-15.84-3-21.12-9.46-22.44-52.89-1.76-43.43.44-123.83,1.32-164.25C842.38,277.24,842.38,277.24,842.82,273.8Z"/><path class="cls-3" d="M1000.79,779.32a135.66,135.66,0,0,0,15.54-24.06A253.2,253.2,0,0,0,1028.07,729a426.15,426.15,0,0,0,16.8-55.08c8.89-37.4,13.59-75.72,15.05-114,2.86-76.56-7.83-153.91-35.43-224.84a429.5,429.5,0,0,0-90.08-143.24,460.2,460.2,0,0,0-41.16-38.69,545.57,545.57,0,0,0-93.79-63.32L793.2,86.4l-6.38-3.16c-4.26-2.1-8.46-4.34-12.75-6.39-8.65-3.95-17.2-8.15-26.05-11.71-17.48-7.65-35.46-14.2-53.54-20.57l-.11,0a6.8,6.8,0,0,1,3.93-13C736.14,41.13,773.55,53.73,809,71c35.52,17,69.39,38.21,99.57,64,30.38,25.54,56.56,55.92,78.69,88.67s39.78,68.45,53.11,105.45a536.75,536.75,0,0,1,27,114.35,601.32,601.32,0,0,1,3.12,117c-2.82,38.9-8.92,77.55-19.21,115.11a420.21,420.21,0,0,1-19,55.18,256.9,256.9,0,0,1-13,26.19,138,138,0,0,1-16.85,23.92,1.14,1.14,0,0,1-1.72-1.49Z"/><polygon class="cls-3" points="724.59 12.61 601.67 16.66 710.15 74.62 724.59 12.61"/><path class="cls-3" d="M535.2,13.53a135.59,135.59,0,0,0-28.63-1.16A252.38,252.38,0,0,0,478,15.61a425.59,425.59,0,0,0-56,13.5,590,590,0,0,0-105.87,45c-67.4,36.42-128.6,84.91-175.68,144.72A429.43,429.43,0,0,0,62.82,369.14a458.38,458.38,0,0,0-12.42,55.1,545.84,545.84,0,0,0-6.91,113l.27,7.11.52,7.1c.35,4.74.55,9.49,1,14.22,1,9.46,1.72,19,3.15,28.4,2.29,18.94,5.78,37.75,9.48,56.56l0,.12a6.8,6.8,0,0,1-13.19,3.22c-11-37.48-19.1-76.1-22.26-115.41-3.35-39.25-2.32-79.18,4.56-118.27,6.57-39.15,19.44-77.13,36.41-112.83s38.76-69,63.86-99.31a536.83,536.83,0,0,1,84.79-81.33,602,602,0,0,1,99.18-62.11C346.18,47.34,382.57,33,420.15,22.75a419.88,419.88,0,0,1,57.17-11.69,255.74,255.74,0,0,1,29.14-2.13,138.72,138.72,0,0,1,29.17,2.36,1.14,1.14,0,0,1-.41,2.25Z"/><polygon class="cls-3" points="15.04 640.88 80.96 744.71 75.8 621.83 15.04 640.88"/><path class="cls-3" d="M106,797.93a135.72,135.72,0,0,0,13,25.51,251.39,251.39,0,0,0,16.85,23.32,426.23,426.23,0,0,0,39.24,42.16c27.9,26.44,58.7,49.72,91.12,70.19,64.8,40.86,137.08,70.39,212.3,82.07a429.7,429.7,0,0,0,169.1-6.13,459.13,459.13,0,0,0,54.11-16.22,546,546,0,0,0,101.81-49.4l6.06-3.73,5.93-3.93c4-2.63,8-5.14,11.93-7.82,7.75-5.51,15.68-10.8,23.19-16.68,15.38-11.29,30.06-23.56,44.64-36l.09-.07a6.8,6.8,0,0,1,9.28,9.91c-27.29,27.94-56.94,54-89.64,76s-67.86,40.88-105.29,54.06c-37.34,13.49-76.74,20.9-116.18,23.64s-79.17.1-117.86-6.92a537.15,537.15,0,0,1-112.48-34,601.14,601.14,0,0,1-102.78-56c-32.24-21.93-62.63-46.59-90-74.32a419.71,419.71,0,0,1-38.25-44.08,256.73,256.73,0,0,1-16.15-24.35,138.54,138.54,0,0,1-12.26-26.57,1.14,1.14,0,0,1,2.16-.75Z"/><polygon class="cls-3" points="907.83 943.34 965.95 834.96 861.41 899.75 907.83 943.34"/><path class="cls-4" d="M823.58,273.84s-23.42-42.15-91.18-58.34L763,139.77s77.89,24.3,115.68,67.3l-4.15,2Z"/><path d="M823.42,275.76l-.78-1.4c-.23-.42-24-41.94-90.48-57.82l-1.21-.29,31.42-77.8.94.3c.79.24,78.62,24.88,116.17,67.62l.94,1.06-5.2,2.48Zm-89.56-61C793.6,229.42,819,264.64,823.68,272l50.39-63.89,2.86-1.36C841.7,167.6,772.49,144,763.61,141.09Z"/><path class="cls-4" d="M856.71,192.05s23.18,47.82,36.76,11.88c7.51-32.72-13.74-46.64-18-42.59,14.42-25.73-23.27-58.23-49.71-43.08,5.82-5.77-23.69-34.08-39.93-10-3.23-13.42-52.25-2.19-30.61,34.74,18.89,27.09,32.21,6.88,32.21,6.88C788.57,157.15,815.23,211.25,856.71,192.05Z"/><path d="M880.87,218.39c-11.23,0-22.25-20.25-24.65-24.95-12.38,5.44-24.57,5-36.23-1.27-18.43-9.93-30.24-31.8-33-40-2,2.26-6.18,5.92-12,6-6.79.05-13.8-4.82-20.61-14.58-8.76-15-5.8-24.86-1.78-30.56,6.2-8.76,18.69-12.52,26.73-11,3.21.62,5.55,2,6.78,4,6.21-8.06,13.65-9,18.94-8.26,10.71,1.46,20.29,10.61,22.18,16.27a7.29,7.29,0,0,1,.39,2c14.75-6.84,31.5-.09,41.25,9.57,8.17,8.1,14.45,21,8.72,33.9a10.16,10.16,0,0,1,4.68,1.49c6.77,3.84,18,17.79,12.23,43.1-3.48,9.24-7.91,14-13.22,14.21Zm-23.65-27.76.46,1c.12.25,12.09,24.67,23.18,24.67h.33c4.38-.2,8.17-4.47,11.28-12.68,5.49-23.95-5-37.06-11.25-40.63-2.51-1.42-4.33-1.42-5-.82l-5.2,5,3.53-6.29c7-12.54.88-25.58-7.22-33.61-9.71-9.62-26.69-16.23-41-8l-7.09,4.07,5.81-5.75c.66-.65.44-1.84.15-2.73-1.72-5.14-10.54-13.47-20.44-14.82-7.19-1-13.42,2.1-18,8.9l-1.36,2-.57-2.37c-.7-2.91-4-4-5.9-4.33-7.37-1.42-18.87,2.06-24.57,10.12-3.66,5.18-6.31,14.27,1.83,28.16,6.28,9,12.56,13.6,18.63,13.6H775c7.11-.08,11.59-6.69,11.63-6.76l1.54-2.32.41,2.75c.74,5,13,30.07,32.46,40.56,11.34,6.11,23.2,6.38,35.26.79Z"/><path class="cls-4" d="M821.42,279.81s-25.72-41.08-93.88-56.62c0,0-4-7.3,2.34-10.21s78.88,20.15,98.26,59.3C828.6,277.51,826.8,280.47,821.42,279.81Z"/><path d="M822.81,281a11.62,11.62,0,0,1-1.52-.1,1.06,1.06,0,0,1-.77-.49c-.26-.41-26.33-40.89-93.22-56.14a1.09,1.09,0,0,1-.7-.54c-.09-.16-2.18-4.08-1-7.64a6.78,6.78,0,0,1,3.82-4.05c6.21-2.85,80,20.09,99.67,59.8a1.26,1.26,0,0,1,.1.38c.3,3.37-.3,5.72-1.82,7.19A6.29,6.29,0,0,1,822.81,281ZM822,278.8a4.82,4.82,0,0,0,3.87-1c1-.95,1.38-2.72,1.19-5.26-19.36-38.74-90.77-61.39-96.76-58.62a4.6,4.6,0,0,0-2.69,2.77,8.36,8.36,0,0,0,.64,5.53C791.91,236.94,819,274.29,822,278.8Z"/><path d="M828.21,267.78c-8.49-14-21.14-25.13-35.16-33.58s-29.47-14.65-45.11-19.73c15.72,4.82,31.23,10.72,45.52,19s27.22,19.3,36.12,33.42a.8.8,0,0,1-1.36.86Z"/><polygon points="805.12 242.05 833.2 202.56 806.89 243.25 805.12 242.05"/><polygon points="760.67 218.87 778.21 177.32 762.66 219.66 760.67 218.87"/></g></svg>