<svg xmlns="http://www.w3.org/2000/svg" viewBox="0 0 1080 492.53"><defs><style>.cls-1{fill:#f29f05;}.cls-2{fill:#070000;}.cls-3{fill:#f2eeeb;}</style></defs><g id="Camada_1" data-name="Camada 1"><path class="cls-1" d="M696.58,245.41H642.33V211.08q0-15-1.74-18.68c-1.16-2.48-3.72-3.71-7.67-3.71q-6.7,0-8.5,4.51t-1.81,19.52v91.74q0,14.39,1.81,18.78t8.12,4.39q6,0,7.92-4.4t1.87-20.66V277.74h54.25v7.7q0,30.66-4.57,43.49t-20.23,22.48q-15.66,9.64-38.6,9.65-23.85,0-39.31-8.17t-20.49-22.63q-5-14.46-5-43.49V229.06q0-21.34,1.54-32a43.7,43.7,0,0,1,9.22-20.55q7.67-9.88,21.26-15.56t31.25-5.67q24,0,39.57,8.77t20.49,21.87q4.89,13.1,4.89,40.75Z"/><path class="cls-1" d="M809.83,159.41l31,197.5H785.41l-2.91-35.5H763.09l-3.26,35.5H703.74l27.67-197.5Zm-28.76,127q-4.11-33.56-8.26-82.95-8.29,56.73-10.41,82.95Z"/><path class="cls-1" d="M850.07,159.41h54.64q22.15,0,34.08,3.29t17.92,9.52a32.13,32.13,0,0,1,8.12,15.06q2.11,8.85,2.12,27.39v17.2q0,18.91-4.12,27.57t-15.14,13.3q-11,4.63-28.81,4.63H904.32v79.54H850.07Zm54.25,33.79v50.26c1.55.08,2.88.12,4,.12q7.47,0,10.37-3.48t2.9-14.45V209.42q0-10.12-3.35-13.17T904.32,193.2Z"/><path class="cls-2" d="M102.9,163.51c9,.84,12.14,2.26,13.58,27.66,1.74,25.69,1.74,75.37,1.74,104.72-.29,14.4-.29,23.71-.58,30.49,7.22,0,14.15.28,19.36.28,11.84.28,14.73.56,16.17,5.36,1.45,4.52.87,13,0,18.07-.86,4.8-2.31,5.64-13.57,6.21s-31.78.84-43.34.28a2.69,2.69,0,0,1-1.45-.28c-8.08.56-17.33.28-24-1.13-10.12-2-13.58-6.21-14.74-34.72-.87-28.51.29-81.29.87-107.83.86-26.25.86-26.25,1.15-28.51a50.64,50.64,0,0,1,1.74-11.29c.86-3.95,2.6-7.62,10.69-9.31a93.14,93.14,0,0,1,13.58-.85A185,185,0,0,1,102.9,163.51Z"/><path class="cls-2" d="M269.6,163.79c12.42,3.39,18.2,10.73,25.42,42.34,7.51,31.61,17.05,87.5,19.65,116.58,2.89,29.35-1.16,31.89-11.85,33.59s-28,2.54-37.27,0c-8.95-2.26-9.82-7.62-10.69-13s-2-10.16-3.46-12.7c-1.16-2.26-2.89-1.69-10.4-1.69s-21.09,0-28.32.56c-6.93.57-7.51,2-8.09,6.78-.28,4.8-.57,12.7-3.17,17.22-2.6,4.23-7.8,5.36-15.32,5.64s-17.62.28-21.66-1.69c-4.05-1.7-2.31-5.08.86-20,2.89-15,7.23-41.22,12.43-72.55,5.2-31,11.55-67.18,18.49-85.24,6.93-18.35,14.73-18.35,28.31-18.63,3.18,0,6.93-.29,11-.29C247.06,160.68,260.35,161.25,269.6,163.79ZM224,205.57c-4.62,17.21-11.27,51.09-14.16,69.72-2.88,18.34-2,21.45,4.05,22.86,6.36,1.13,17.62.56,24.27-.85,6.35-1.41,7.51-3.38,6.06-21.45-1.73-18.35-6.06-52.78-9.82-70-1.73-8.47-3.18-13-4.62-13C228,192.86,226.26,197.1,224,205.57Z"/><path class="cls-2" d="M432.54,164.92c18.49,5.36,30.91,17.22,36.69,33.87,6.07,16.66,5.2,38.39.29,54.76s-14.16,27.66-29.76,33.87a1.07,1.07,0,0,1-.87.29c11.27,19.19,21.09,36.41,26.58,47.42,7.23,14.39,6.36,17.22-1.73,18.91s-23.4,2-32.07,1.13-10.69-2.82-17.33-12.7c-5.2-7.91-13.58-21.17-20.52-33.88-.28,19.48-.57,26.82-.86,32.47-.58,6.77-1.16,11.29-10.11,13.83-9,2.25-26,2.54-36.12.28-10.11-2-13.58-6.21-14.73-34.72-.87-28.51.29-81.29,1.44-109.8,1.16-28.8,1.16-25.41,2-33.59,1.15-8.19,2.6-11.86,11-13.27a58.29,58.29,0,0,1,13-1.13c3.75-.56,8.37-.85,14.15-1.13,6.07-.56,13.29-.85,20.8-.85C407.11,160.68,421,161.53,432.54,164.92Zm-40.16,26.25c.87,16.09,1.44,41.78,1.44,65.77,6.07.56,11.85.56,15.89-1.13,7.8-3.67,9.25-13.55,10.41-24.28.86-10.72,1.73-21.73-.87-29.35-2.6-7.34-8.67-11-18.2-11.29h-1.74C397.29,190.89,394.69,191.17,392.38,191.17Z"/><path class="cls-2" d="M492.34,186.94c.29-2.26.87-7.06,1.73-11.29,1.16-4,2.6-7.63,10.69-9.32,8.38-1.41,23.41-.85,32.36,0S549.26,168.59,551,194c1.44,25.69,1.44,75.37,1.44,104.72s-.57,38.39-.86,45.17c-.58,6.77-1.16,11.29-10.12,13.55-9,2.54-26,2.54-36.11.56-10.4-2-13.87-6.21-14.73-34.72-1.16-28.51.29-81.29.86-107.82C492.05,189.19,492.05,189.19,492.34,186.94Z"/><path class="cls-3" d="M994.84,188.75s-19.5-35.1-75.92-48.59L944.39,77.1s64.87,20.23,96.34,56.05l-3.45,1.64Z"/><path d="M994.72,190.35l-.65-1.17c-.2-.35-20-34.92-75.36-48.15l-1-.24L943.88,76l.78.25c.65.2,65.47,20.72,96.74,56.31l.78.88-4.33,2.07Zm-74.59-50.81c49.75,12.22,70.87,41.55,74.8,47.65l42-53.2,2.39-1.14c-29.35-32.57-87-52.23-94.37-54.65Z"/><path class="cls-3" d="M1022.44,120.63s19.3,39.83,30.61,9.9c6.26-27.25-11.44-38.84-15-35.47,12-21.43-19.38-48.49-41.4-35.88,4.85-4.8-19.72-28.37-33.25-8.33C960.76,39.68,919.94,49,938,79.79c15.73,22.56,26.83,5.73,26.83,5.73C965.69,91.58,987.9,136.63,1022.44,120.63Z"/><path d="M1042.56,142.57c-9.36,0-18.53-16.86-20.53-20.77-10.31,4.52-20.46,4.17-30.18-1.07-15.34-8.27-25.18-26.48-27.47-33.28-1.68,1.88-5.14,4.93-10,5-5.66,0-11.49-4-17.16-12.15-7.3-12.45-4.83-20.7-1.48-25.44,5.15-7.29,15.56-10.43,22.25-9.14,2.68.51,4.62,1.67,5.65,3.34,5.17-6.71,11.36-7.48,15.77-6.88,8.92,1.22,16.9,8.84,18.47,13.55a5.83,5.83,0,0,1,.33,1.68c12.29-5.7,26.23-.08,34.35,8,6.8,6.74,12,17.52,7.26,28.23a8.36,8.36,0,0,1,3.9,1.24c5.64,3.19,15,14.81,10.19,35.89-2.9,7.69-6.59,11.63-11,11.83Zm-19.7-23.11.38.78c.1.21,10.07,20.55,19.3,20.55h.28c3.65-.16,6.81-3.72,9.39-10.56,4.57-19.94-4.12-30.86-9.36-33.83-2.1-1.19-3.61-1.19-4.13-.69l-4.33,4.16,2.93-5.24c5.86-10.44.74-21.3-6-28-8.08-8-22.22-13.51-34.16-6.67l-5.91,3.38,4.84-4.79c.55-.54.37-1.53.12-2.27-1.43-4.28-8.77-11.22-17-12.34-6-.82-11.17,1.75-15,7.41L963.05,53l-.47-2c-.58-2.43-3.33-3.3-4.91-3.6-6.14-1.19-15.72,1.7-20.47,8.42-3,4.31-5.25,11.88,1.53,23.45,5.23,7.5,10.46,11.33,15.51,11.33h.11c5.93-.07,9.66-5.58,9.69-5.63l1.29-1.93.34,2.29c.62,4.13,10.81,25,27,33.78,9.44,5.08,19.32,5.31,29.37.65Z"/><path class="cls-3" d="M993.05,193.72s-21.42-34.21-78.18-47.15c0,0-3.3-6.08,2-8.5s65.69,16.77,81.82,49.38C999,191.81,997.53,194.27,993.05,193.72Z"/><path d="M994.2,194.69a9.34,9.34,0,0,1-1.26-.09.89.89,0,0,1-.65-.41c-.21-.33-21.92-34.05-77.62-46.75a.94.94,0,0,1-.59-.44c-.07-.14-1.81-3.4-.82-6.37a5.62,5.62,0,0,1,3.18-3.37c5.17-2.37,66.64,16.73,83,49.8a.85.85,0,0,1,.09.31c.25,2.81-.25,4.77-1.52,6A5.26,5.26,0,0,1,994.2,194.69Zm-.64-1.81a4,4,0,0,0,3.22-.8c.82-.79,1.15-2.27,1-4.38-16.12-32.26-75.59-51.13-80.58-48.82a3.87,3.87,0,0,0-2.24,2.31,7,7,0,0,0,.53,4.61C968.47,158,991,189.12,993.56,192.88Z"/><path d="M998.71,183.7c-7.08-11.65-17.61-20.93-29.29-28s-24.54-12.2-37.57-16.42c13.1,4,26,8.92,37.91,15.85s22.67,16.07,30.08,27.84a.66.66,0,0,1-.21.92.67.67,0,0,1-.92-.21Z"/><polygon points="979.47 162.28 1002.86 129.39 980.95 163.28 979.47 162.28"/><polygon points="942.46 142.97 957.06 108.37 944.12 143.63 942.46 142.97"/></g></svg>